<svg xmlns="http://www.w3.org/2000/svg" width="375" viewBox="0 0 375 375" height="375" version="1.0"><defs><clipPath id="a"><path d="M 81.3125 67.027344 L 185.5625 67.027344 L 185.5625 171.277344 L 81.3125 171.277344 Z M 81.3125 67.027344"/></clipPath><clipPath id="b"><path d="M 189.359375 95.601562 L 293.609375 95.601562 L 293.609375 199.851562 L 189.359375 199.851562 Z M 189.359375 95.601562"/></clipPath><clipPath id="c"><path d="M 81.3125 175.074219 L 185.5625 175.074219 L 185.5625 279.324219 L 81.3125 279.324219 Z M 81.3125 175.074219"/></clipPath><clipPath id="d"><path d="M 189.359375 203.648438 L 293.609375 203.648438 L 293.609375 307.898438 L 189.359375 307.898438 Z M 189.359375 203.648438"/></clipPath></defs><path fill="#FFF" d="M-37.5 -37.5H412.5V412.5H-37.5z"/><path fill="#FFF" d="M-37.5 -37.5H412.5V412.5H-37.5z"/><path d="M-37.5 -37.5H412.5V412.5H-37.5z"/><g clip-path="url(#a)"><path fill="#008E97" d="M 81.3125 67.027344 L 185.5625 67.027344 L 185.5625 171.277344 L 81.3125 171.277344 Z M 81.3125 67.027344"/></g><g clip-path="url(#b)"><path fill="#FFB320" d="M 189.359375 95.601562 L 293.609375 95.601562 L 293.609375 199.851562 L 189.359375 199.851562 Z M 189.359375 95.601562"/></g><g clip-path="url(#c)"><path fill="#FFB320" d="M 81.3125 175.074219 L 185.5625 175.074219 L 185.5625 279.324219 L 81.3125 279.324219 Z M 81.3125 175.074219"/></g><g clip-path="url(#d)"><path fill="#008E97" d="M 189.359375 203.648438 L 293.609375 203.648438 L 293.609375 307.898438 L 189.359375 307.898438 Z M 189.359375 203.648438"/></g><g><g><g><path d="M 37.996094 0 L 44.414062 0 L 24.894531 -25.941406 L 43.039062 -45.855469 L 36.816406 -45.855469 L 12.183594 -19.457031 L 12.183594 -45.855469 L 6.945312 -45.855469 L 6.945312 0 L 12.183594 0 L 12.183594 -11.988281 L 21.09375 -21.75 Z M 37.996094 0" transform="translate(115.324 138.304)"/></g></g></g><g><g><g><path d="M 35.964844 -11.59375 L 41.074219 0 L 46.773438 0 L 26.269531 -45.855469 L 20.832031 -45.855469 L 0.261719 0 L 5.832031 0 L 10.941406 -11.59375 Z M 33.738281 -16.640625 L 13.167969 -16.640625 L 23.386719 -39.894531 Z M 33.738281 -16.640625" transform="translate(216.982 167.771)"/></g></g></g><g><g><g><path d="M 45.070312 0 L 45.070312 -45.855469 L 39.828125 -45.855469 L 39.828125 -25.15625 L 12.183594 -25.15625 L 12.183594 -45.855469 L 6.945312 -45.855469 L 6.945312 0 L 12.183594 0 L 12.183594 -20.175781 L 39.828125 -20.175781 L 39.828125 0 Z M 45.070312 0" transform="translate(112.207 240.1)"/></g></g></g><g><g><g><path d="M 12.183594 0 L 12.183594 -45.855469 L 6.945312 -45.855469 L 6.945312 0 Z M 12.183594 0" transform="translate(230.921 266.89)"/></g></g></g></svg>